<?xml version="1.0" encoding="UTF-8"?><svg id="Layer_1" xmlns="http://www.w3.org/2000/svg" viewBox="0 0 109.95 126.81"><g><polygon points="55.02 5.07 .09 33.68 .09 71.54 .09 87.81 .09 90.91 55.02 119.52 109.96 90.91 109.96 82.82 109.96 71.54 109.96 33.68 55.02 5.07" fill="#11162d"/><g><polygon points="54.97 126.95 0 95.22 0 72.31 15.3 72.31 15.3 86.38 54.97 109.29 94.65 86.38 94.65 72.31 109.95 72.31 109.95 95.22 54.97 126.95" fill="#f19024"/><polygon points="15.3 55.49 0 55.49 0 31.74 54.97 0 109.95 31.74 109.95 50.73 94.65 50.73 94.65 40.57 54.97 17.67 15.3 40.57 15.3 55.49" fill="#f19024"/></g></g><g><path d="M38.37,87.64V39.17h18.64c5.37,0,9.86,1.08,13.48,3.24,3.62,2.16,6.35,5.07,8.19,8.74,1.84,3.66,2.76,7.72,2.76,12.18,0,4.91-1.01,9.19-3.04,12.83-2.03,3.64-4.87,6.46-8.53,8.46-3.66,2-7.95,3-12.87,3h-18.64Zm29.56-24.3c0-2.5-.43-4.7-1.3-6.59-.86-1.89-2.12-3.36-3.75-4.4-1.64-1.05-3.6-1.57-5.87-1.57h-5.32v25.26h5.32c2.32,0,4.29-.55,5.9-1.64,1.61-1.09,2.86-2.6,3.72-4.54,.86-1.93,1.3-4.11,1.3-6.52Z" fill="#fffffa"/><rect x="38.37" y="39.17" width="13.31" height="48.47" fill="#f19024"/></g></svg>