<svg width="234" height="47" viewBox="0 0 234 47" fill="none" xmlns="http://www.w3.org/2000/svg">
<path d="M59.8109 22.8846C59.7209 22.7946 59.5536 22.6723 59.309 22.5179C59.0774 22.3634 58.7878 22.2154 58.4404 22.0739C58.1058 21.9323 57.739 21.81 57.34 21.7071C56.9411 21.5913 56.5357 21.5333 56.1239 21.5333C55.4032 21.5333 54.8562 21.6685 54.483 21.9387C54.1227 22.209 53.9425 22.5886 53.9425 23.0777C53.9425 23.4509 54.0583 23.7469 54.29 23.9657C54.5216 24.1844 54.8691 24.3711 55.3324 24.5255C55.7957 24.6799 56.3748 24.8472 57.0698 25.0274C57.9706 25.2462 58.7492 25.5164 59.4056 25.8382C60.0748 26.147 60.5831 26.5589 60.9306 27.0736C61.2909 27.5755 61.4711 28.2447 61.4711 29.0813C61.4711 29.8148 61.336 30.4454 61.0657 30.9731C60.7955 31.4878 60.4222 31.9061 59.9461 32.2278C59.4699 32.5496 58.9294 32.7877 58.3245 32.9421C57.7197 33.0837 57.0762 33.1544 56.3941 33.1544C55.712 33.1544 55.03 33.0837 54.3479 32.9421C53.6658 32.8005 53.0095 32.601 52.3789 32.3437C51.7483 32.0734 51.1691 31.7517 50.6415 31.3785L51.819 29.0813C51.9349 29.1971 52.1408 29.3515 52.4368 29.5446C52.7328 29.7247 53.0931 29.9113 53.5178 30.1044C53.9425 30.2846 54.4058 30.439 54.9077 30.5677C55.4096 30.6964 55.9179 30.7607 56.4327 30.7607C57.1534 30.7607 57.7004 30.6385 58.0736 30.3939C58.4468 30.1494 58.6334 29.8019 58.6334 29.3515C58.6334 28.9397 58.4854 28.618 58.1894 28.3863C57.8934 28.1547 57.4816 27.9552 56.9539 27.7879C56.4263 27.6077 55.8021 27.4147 55.0814 27.2088C54.2192 26.9642 53.4985 26.694 52.9194 26.398C52.3403 26.0891 51.9091 25.703 51.626 25.2397C51.3429 24.7764 51.2013 24.1973 51.2013 23.5024C51.2013 22.5629 51.4201 21.7779 51.8576 21.1473C52.3081 20.5038 52.9129 20.0212 53.6722 19.6995C54.4315 19.3648 55.2745 19.1975 56.2011 19.1975C56.8445 19.1975 57.4494 19.2683 58.0157 19.4099C58.5948 19.5515 59.1353 19.7381 59.6372 19.9697C60.1391 20.2014 60.5895 20.4523 60.9885 20.7226L59.8109 22.8846ZM73.0011 30.6642V33H63.4842V19.2941H72.8274V21.6299H66.1481V24.9309H71.9201V27.0929H66.1481V30.6642H73.0011ZM74.0028 26.0505C74.0028 25.214 74.1508 24.3968 74.4468 23.5989C74.7557 22.7881 75.1997 22.0546 75.7788 21.3982C76.3579 20.729 77.0657 20.2014 77.9022 19.8153C78.7387 19.4163 79.6911 19.2169 80.7592 19.2169C82.0204 19.2169 83.1079 19.4935 84.0216 20.0469C84.9482 20.6003 85.6368 21.321 86.0872 22.209L84.0409 23.6182C83.8093 23.1034 83.5069 22.698 83.1337 22.402C82.7604 22.0932 82.3615 21.8808 81.9368 21.765C81.5121 21.6363 81.0939 21.572 80.682 21.572C80.0128 21.572 79.4273 21.7071 78.9254 21.9773C78.4363 22.2476 78.0245 22.6015 77.6899 23.0391C77.3553 23.4766 77.1043 23.9657 76.937 24.5062C76.7826 25.0467 76.7054 25.5872 76.7054 26.1277C76.7054 26.7326 76.8019 27.3182 76.9949 27.8844C77.188 28.4378 77.4582 28.9333 77.8057 29.3708C78.1661 29.7955 78.5907 30.1366 79.0798 30.3939C79.5817 30.6385 80.1286 30.7607 80.7206 30.7607C81.1453 30.7607 81.5765 30.6899 82.014 30.5484C82.4516 30.4068 82.857 30.1816 83.2302 29.8727C83.6034 29.5639 83.893 29.1649 84.0989 28.6759L86.2802 29.9306C86.01 30.6127 85.566 31.1918 84.9482 31.668C84.3434 32.1442 83.6613 32.5045 82.902 32.749C82.1427 32.9936 81.3898 33.1158 80.6434 33.1158C79.6653 33.1158 78.7709 32.9163 77.9601 32.5174C77.1494 32.1056 76.448 31.5651 75.856 30.8958C75.2769 30.2138 74.82 29.4545 74.4854 28.618C74.1637 27.7686 74.0028 26.9128 74.0028 26.0505ZM93.8773 33.0965C92.7834 33.0965 91.8504 32.9163 91.0782 32.556C90.3189 32.1828 89.7012 31.6744 89.225 31.031C88.7617 30.3875 88.4207 29.6604 88.2019 28.8496C87.9831 28.026 87.8737 27.1702 87.8737 26.2822V19.2941H90.5377V26.2822C90.5377 26.8484 90.5892 27.4018 90.6921 27.9423C90.808 28.47 90.9946 28.9461 91.2519 29.3708C91.5093 29.7955 91.8504 30.1301 92.2751 30.3746C92.6998 30.6192 93.2274 30.7414 93.858 30.7414C94.5015 30.7414 95.0356 30.6192 95.4602 30.3746C95.8978 30.1173 96.2388 29.7762 96.4834 29.3515C96.7408 28.9268 96.9274 28.4507 97.0432 27.923C97.159 27.3825 97.2169 26.8355 97.2169 26.2822V19.2941H99.8616V26.2822C99.8616 27.2216 99.7458 28.1032 99.5141 28.9268C99.2953 29.7505 98.9414 30.4776 98.4524 31.1082C97.9762 31.7259 97.3585 32.215 96.5992 32.5753C95.8399 32.9228 94.9326 33.0965 93.8773 33.0965ZM102.545 33V19.2941H108.606C109.237 19.2941 109.816 19.4228 110.344 19.6802C110.884 19.9375 111.348 20.285 111.734 20.7226C112.133 21.1601 112.435 21.6492 112.641 22.1897C112.86 22.7302 112.969 23.2836 112.969 23.8498C112.969 24.429 112.866 24.9888 112.66 25.5293C112.467 26.0569 112.184 26.5202 111.811 26.9192C111.438 27.3182 111 27.627 110.498 27.8458L113.625 33H110.691L107.873 28.4056H105.209V33H102.545ZM105.209 26.0698H108.548C108.883 26.0698 109.179 25.9733 109.436 25.7803C109.694 25.5743 109.9 25.3041 110.054 24.9695C110.209 24.6349 110.286 24.2617 110.286 23.8498C110.286 23.4123 110.196 23.0326 110.016 22.7109C109.835 22.3763 109.604 22.1125 109.321 21.9194C109.05 21.7264 108.754 21.6299 108.433 21.6299H105.209V26.0698ZM124.9 30.6642V33H115.383V19.2941H124.726V21.6299H118.047V24.9309H123.819V27.0929H118.047V30.6642H124.9Z" fill="#F99E43"/>
<path d="M130.784 26.0505C130.784 25.214 130.932 24.3968 131.228 23.5989C131.537 22.7881 131.981 22.0546 132.56 21.3982C133.139 20.729 133.847 20.2014 134.684 19.8153C135.52 19.4163 136.472 19.2169 137.541 19.2169C138.802 19.2169 139.889 19.4935 140.803 20.0469C141.73 20.6003 142.418 21.321 142.868 22.209L140.822 23.6182C140.591 23.1034 140.288 22.698 139.915 22.402C139.542 22.0932 139.143 21.8808 138.718 21.765C138.293 21.6363 137.875 21.572 137.463 21.572C136.794 21.572 136.209 21.7071 135.707 21.9773C135.218 22.2476 134.806 22.6015 134.471 23.0391C134.137 23.4766 133.886 23.9657 133.718 24.5062C133.564 25.0467 133.487 25.5872 133.487 26.1277C133.487 26.7326 133.583 27.3182 133.776 27.8844C133.969 28.4378 134.24 28.9333 134.587 29.3708C134.947 29.7955 135.372 30.1366 135.861 30.3939C136.363 30.6385 136.91 30.7607 137.502 30.7607C137.927 30.7607 138.358 30.6899 138.795 30.5484C139.233 30.4068 139.638 30.1816 140.011 29.8727C140.385 29.5639 140.674 29.1649 140.88 28.6759L143.062 29.9306C142.791 30.6127 142.347 31.1918 141.73 31.668C141.125 32.1442 140.443 32.5045 139.683 32.749C138.924 32.9936 138.171 33.1158 137.425 33.1158C136.447 33.1158 135.552 32.9163 134.741 32.5174C133.931 32.1056 133.229 31.5651 132.637 30.8958C132.058 30.2138 131.601 29.4545 131.267 28.618C130.945 27.7686 130.784 26.9128 130.784 26.0505ZM150.528 33.0965C149.524 33.0965 148.61 32.9035 147.786 32.5174C146.976 32.1313 146.274 31.6101 145.682 30.9538C145.103 30.2846 144.653 29.5381 144.331 28.7145C144.009 27.878 143.848 27.0222 143.848 26.147C143.848 25.2333 144.016 24.3646 144.35 23.541C144.698 22.7045 145.167 21.9645 145.759 21.321C146.364 20.6647 147.072 20.1499 147.883 19.7767C148.707 19.3906 149.607 19.1975 150.585 19.1975C151.576 19.1975 152.477 19.397 153.288 19.796C154.112 20.1949 154.813 20.729 155.392 21.3982C155.971 22.0674 156.422 22.8139 156.743 23.6375C157.065 24.4611 157.226 25.3105 157.226 26.1856C157.226 27.0865 157.059 27.9552 156.724 28.7917C156.39 29.6153 155.92 30.3553 155.315 31.0117C154.723 31.6551 154.015 32.1635 153.192 32.5367C152.381 32.9099 151.493 33.0965 150.528 33.0965ZM146.551 26.147C146.551 26.739 146.641 27.3117 146.821 27.8651C147.001 28.4185 147.259 28.914 147.593 29.3515C147.941 29.7762 148.359 30.1173 148.848 30.3746C149.35 30.6192 149.916 30.7414 150.547 30.7414C151.19 30.7414 151.763 30.6127 152.265 30.3553C152.767 30.0851 153.185 29.7312 153.52 29.2936C153.854 28.8432 154.105 28.3477 154.273 27.8072C154.453 27.2538 154.543 26.7004 154.543 26.147C154.543 25.555 154.446 24.9888 154.253 24.4483C154.073 23.8949 153.809 23.4058 153.462 22.9812C153.127 22.5436 152.709 22.2026 152.207 21.958C151.718 21.7006 151.165 21.572 150.547 21.572C149.89 21.572 149.311 21.7071 148.809 21.9773C148.32 22.2347 147.909 22.5822 147.574 23.0198C147.239 23.4573 146.982 23.9464 146.802 24.4869C146.635 25.0274 146.551 25.5808 146.551 26.147ZM170.447 33V24.0043L166.933 30.7028H165.447L161.934 24.0043V33H159.27V19.2941H162.127L166.18 27.0929L170.273 19.2941H173.111V33H170.447ZM175.972 33V19.2941H181.783C182.413 19.2941 182.992 19.4228 183.52 19.6802C184.048 19.9375 184.505 20.285 184.891 20.7226C185.29 21.1601 185.599 21.6492 185.817 22.1897C186.036 22.7302 186.145 23.2836 186.145 23.8498C186.145 24.622 185.965 25.3556 185.605 26.0505C185.245 26.7455 184.749 27.3117 184.119 27.7493C183.488 28.1868 182.741 28.4056 181.879 28.4056H178.636V33H175.972ZM178.636 26.0698H181.725C182.047 26.0698 182.336 25.9797 182.594 25.7996C182.851 25.6194 183.057 25.362 183.211 25.0274C183.366 24.6799 183.443 24.2874 183.443 23.8498C183.443 23.3737 183.353 22.9683 183.173 22.6337C183.005 22.2991 182.78 22.0481 182.497 21.8808C182.227 21.7135 181.931 21.6299 181.609 21.6299H178.636V26.0698ZM193.81 33.0965C192.716 33.0965 191.783 32.9163 191.011 32.556C190.252 32.1828 189.634 31.6744 189.158 31.031C188.695 30.3875 188.353 29.6604 188.135 28.8496C187.916 28.026 187.807 27.1702 187.807 26.2822V19.2941H190.47V26.2822C190.47 26.8484 190.522 27.4018 190.625 27.9423C190.741 28.47 190.927 28.9461 191.185 29.3708C191.442 29.7955 191.783 30.1301 192.208 30.3746C192.633 30.6192 193.16 30.7414 193.791 30.7414C194.434 30.7414 194.968 30.6192 195.393 30.3746C195.831 30.1173 196.172 29.7762 196.416 29.3515C196.674 28.9268 196.86 28.4507 196.976 27.923C197.092 27.3825 197.15 26.8355 197.15 26.2822V19.2941H199.794V26.2822C199.794 27.2216 199.679 28.1032 199.447 28.9268C199.228 29.7505 198.874 30.4776 198.385 31.1082C197.909 31.7259 197.291 32.215 196.532 32.5753C195.773 32.9228 194.865 33.0965 193.81 33.0965ZM212.728 21.6299H208.346V33H205.701V21.6299H201.319V19.2941H212.728V21.6299ZM223.947 30.6642V33H214.43V19.2941H223.773V21.6299H217.094V24.9309H222.866V27.0929H217.094V30.6642H223.947Z" fill="white"/>
<g clip-path="url(#clip0_1573_43735)">
<path d="M20.1085 0.51944L0 11.8708V26.8902V33.3457V34.5735L20.1085 45.9248L40.2169 34.5735V31.366V26.8902V11.8708L20.1085 0.51944Z" fill="#0F142C"/>
<path d="M2.76807 26.5878V33.3569L20.0891 43.3586L37.4115 33.3569V26.5878" stroke="#F29224" stroke-width="5.60008" stroke-miterlimit="10"/>
<path d="M37.4115 18.6902V13.3562L20.0891 3.35583L2.76807 13.3562V20.4347" stroke="#F29224" stroke-width="5.60008" stroke-miterlimit="10"/>
<path d="M22.2827 29.0392H15.1146L10.23 23.0793H17.3995L22.2827 29.0392Z" fill="#F29224"/>
<path d="M22.2827 29.0392H15.1146L10.23 23.0793H17.3995L22.2827 29.0392Z" fill="#F29224"/>
<path d="M31.9162 16.4824L22.3834 29.0392H15.2153L24.7467 16.4824" fill="#FFFFFB"/>
<path d="M31.9162 16.4824L22.3834 29.0392H15.2153L24.7467 16.4824" fill="#FFFFFB"/>
</g>
<defs>
<clipPath id="clip0_1573_43735">
<rect width="40.2169" height="46.755" fill="white"/>
</clipPath>
</defs>
</svg>